<svg xmlns="http://www.w3.org/2000/svg" viewBox="0 0 361.8 361.8">
	<path d="M 325.754 288.984 c 23.523 -31.421 36.058 -68.609 36.058 -108.078 c 0 -39.68 -12.62 -77.347 -36.496 -108.945 C 290.766 26.23 238.13 0 180.906 0 C 122.56 0 67.461 28.434 33.527 76.063 l -0.011 0.011 C 11.59 106.844 0 143.098 0 180.906 c 0 37.778 11.563 73.664 33.262 104.29 c 0.101 0.175 0.136 0.374 0.254 0.542 c 0.457 0.64 0.957 1.235 1.422 1.867 c 0.539 0.739 1.007 1.516 1.562 2.247 c 0.105 0.14 0.27 0.191 0.383 0.32 c 34.14 44.926 87.527 71.64 144.023 71.64 c 55.461 0 106.563 -24.695 141.117 -67.847 c 0.047 -0.059 0.125 -0.078 0.172 -0.137 c 0.25 -0.312 0.457 -0.644 0.703 -0.96 c 0.801 -1.013 1.637 -1.981 2.418 -3.016 c 0.204 -0.266 0.282 -0.582 0.438 -0.868 Z M 180.906 13.652 c 50.926 0 97.926 22.473 129.864 61.871 L 299.934 86.36 c -28.79 -36.191 -72.707 -57.574 -119.028 -57.574 c -48.281 0 -93.285 22.813 -121.992 61.438 L 48.06 79.363 c 31.59 -41.25 80.82 -65.71 132.847 -65.71 Z m 27.692 215.125 c -6.73 9.215 -16.82 14.504 -27.692 14.504 s -20.96 -5.289 -27.691 -14.504 l -19.117 -26.187 c -5.215 -7.145 -8.086 -16.078 -8.086 -25.16 v -9.657 a 87.014 87.014 0 0 1 3.683 -25.054 c 15.16 -3.176 31.38 -4.781 48.27 -4.781 c 18.844 0 37.152 1.984 54.476 5.902 a 87.036 87.036 0 0 1 3.36 23.933 v 9.657 c 0 9.082 -2.871 18.015 -8.082 25.156 Z m -18.953 27.227 l -6.458 32.258 c -0.433 2.168 -4.128 2.168 -4.562 0 l -6.457 -32.258 c 2.871 0.559 5.785 0.93 8.738 0.93 s 5.867 -0.371 8.739 -0.93 Z m -12.153 -133.125 c -73.332 0 -114.902 22.582 -129.37 32.293 c -0.548 0.363 -1.274 0.383 -1.911 0.039 c -0.734 -0.398 -1.16 -1.207 -1.02 -1.926 c 3.493 -17.25 10.332 -33.644 20.332 -48.719 c 25.79 -38.902 68.922 -62.125 115.383 -62.125 c 44.594 0 86.739 21.778 112.742 58.262 c 10.375 14.555 17.72 30.512 21.82 47.418 c 0.29 1.172 -0.023 2.508 -0.82 3.574 c -1.312 1.735 -3.648 2.223 -5.566 1.172 c -16.34 -9.015 -61.871 -29.988 -131.59 -29.988 Z M 40.18 90.793 l 11.066 11.07 c -9.328 15.223 -15.96 31.543 -19.434 48.715 c -1.328 6.55 1.918 13.39 7.875 16.629 a 15.648 15.648 0 0 0 7.473 1.91 c 3.004 0 5.985 -0.875 8.57 -2.61 c 6.91 -4.636 26.641 -16.163 59.73 -23.5 a 100.57 100.57 0 0 0 -3.1 24.766 v 9.657 c 0 11.953 3.804 23.746 10.71 33.207 l 19.117 26.191 c 4.075 5.578 9.223 10.09 14.958 13.461 c 0.015 0.074 -0.012 0.149 0 0.223 l 8.093 40.43 c 1.492 7.44 8.082 12.843 15.668 12.843 c 7.59 0 14.176 -5.402 15.668 -12.844 l 8.094 -40.43 c 0.016 -0.073 -0.016 -0.148 0 -0.222 c 5.738 -3.375 10.883 -7.883 14.957 -13.46 l 19.117 -26.192 c 6.91 -9.461 10.711 -21.254 10.711 -33.207 v -9.657 c 0 -7.921 -0.957 -15.793 -2.805 -23.496 c 27.743 6.5 46.688 15.496 55.836 20.547 c 7.922 4.36 17.614 2.305 23.059 -4.906 c 3.289 -4.36 4.453 -9.836 3.195 -15.023 c -4.066 -16.743 -11.16 -32.56 -20.812 -47.22 l 11 -11 c 19.074 27.829 29.234 60.2 29.234 94.231 c 0 34.137 -10.09 66.461 -29.195 94.274 l -10.942 -10.942 c 11.672 -17.758 19.582 -37.773 22.985 -58.515 a 6.822 6.822 0 0 0 -1.54 -5.532 a 6.823 6.823 0 0 0 -5.195 -2.402 h -0.023 l -43.012 0.137 c -11.535 0.039 -22.554 5.57 -29.472 14.793 l -27.344 36.453 a 42.768 42.768 0 0 0 -7.508 16.203 l -6.223 27.195 c -3.195 13.98 -15.445 23.743 -29.785 23.743 s -26.59 -9.762 -29.785 -23.743 l -6.223 -27.195 a 42.658 42.658 0 0 0 -7.511 -16.203 l -27.34 -36.453 c -6.918 -9.223 -17.938 -14.754 -29.473 -14.793 l -43.012 -0.137 h -0.023 a 6.831 6.831 0 0 0 -6.738 7.934 c 3.148 19.156 10.129 37.746 20.281 54.394 L 40.09 271.11 c -17.317 -26.898 -26.438 -57.82 -26.438 -90.203 c 0 -32.23 9.22 -63.18 26.528 -90.113 Z M 65.94 257.84 c -9.437 -14.098 -16.375 -29.883 -20.113 -46.371 l 34.7 0.11 c 7.28 0.023 14.23 3.515 18.597 9.335 l 27.336 36.453 a 29.177 29.177 0 0 1 5.133 11.055 l 6.218 27.195 c 1.739 7.59 5.317 14.32 10.208 19.766 c -33.165 -8.121 -62.516 -28.367 -82.079 -57.543 Z m 226.98 4.223 c -19.448 26.804 -47.66 45.535 -79.108 53.296 c 4.882 -5.441 8.457 -12.164 10.187 -19.746 l 6.223 -27.191 a 29.205 29.205 0 0 1 5.125 -11.059 l 27.343 -36.453 c 4.368 -5.82 11.317 -9.308 18.594 -9.332 l 34.7 -0.11 c -4.114 18.098 -12.016 35.376 -23.063 50.595 Z M 180.907 348.16 c -52.027 0 -101.258 -24.46 -132.847 -65.71 l 10.855 -10.86 c 28.703 38.625 73.711 61.437 121.992 61.437 c 46.32 0 90.239 -21.382 119.028 -57.574 l 10.836 10.84 c -31.938 39.394 -78.938 61.867 -129.864 61.867 Z m 0 0" fill="#000000"/>
</svg>