<svg xmlns="http://www.w3.org/2000/svg" viewBox="0 0.059 389.1 300.4">
	<path d="M 359.906 0.059 H 29.215 C 13.105 0.059 0 13.164 0 29.269 v 146.376 c 0 16.105 13.105 29.214 29.215 29.214 h 80.406 c 13.266 20.707 13.125 47.121 -0.562 67.653 l -11.54 17.308 a 6.822 6.822 0 0 0 1.891 9.465 a 6.822 6.822 0 0 0 9.469 -1.89 l 11.539 -17.31 c 15.129 -22.683 16.734 -51.26 4.902 -75.226 h 73.047 c 13.266 20.711 13.125 47.125 -0.562 67.653 l -11.54 17.308 a 6.825 6.825 0 0 0 5.672 10.613 a 6.822 6.822 0 0 0 5.688 -3.038 l 11.54 -17.31 c 15.124 -22.679 16.733 -51.257 4.898 -75.226 h 73.046 c 13.266 20.711 13.13 47.125 -0.558 67.657 l -11.543 17.304 a 6.824 6.824 0 0 0 1.894 9.47 a 6.798 6.798 0 0 0 3.782 1.147 a 6.81 6.81 0 0 0 5.683 -3.042 l 11.543 -17.305 c 15.125 -22.684 16.735 -51.262 4.899 -75.227 h 57.093 c 16.106 0 29.211 -13.11 29.211 -29.215 V 29.27 C 389.121 13.164 376.012 0.059 359.906 0.059 Z m 15.559 175.586 c 0 8.578 -6.977 15.558 -15.559 15.558 h -64.87 c -4.84 -8.988 -7.516 -18.941 -7.516 -29.234 v -25.38 h 19.613 a 6.823 6.823 0 0 0 5.71 -3.089 a 6.81 6.81 0 0 0 0.544 -6.469 L 288.02 69.008 a 6.82 6.82 0 0 0 -12.504 -0.004 l -25.375 58.023 a 6.827 6.827 0 0 0 0.539 6.473 a 6.828 6.828 0 0 0 5.71 3.09 h 17.477 v 25.379 c 0 10.129 2.055 20.023 5.934 29.234 h -73.512 c -4.844 -8.988 -7.52 -18.941 -7.52 -29.234 v -25.38 h 19.614 a 6.83 6.83 0 0 0 5.715 -3.089 a 6.81 6.81 0 0 0 0.539 -6.469 l -25.364 -58.023 a 6.82 6.82 0 0 0 -6.253 -4.094 a 6.83 6.83 0 0 0 -6.254 4.09 l -25.371 58.023 a 6.823 6.823 0 0 0 6.25 9.563 h 17.472 v 25.379 c 0 10.129 2.059 20.023 5.938 29.234 h -73.512 c -4.844 -8.988 -7.52 -18.941 -7.52 -29.234 v -25.38 h 19.614 a 6.83 6.83 0 0 0 5.715 -3.089 a 6.81 6.81 0 0 0 0.539 -6.469 l -25.364 -58.023 a 6.826 6.826 0 0 0 -12.508 -0.004 l -25.37 58.023 a 6.823 6.823 0 0 0 6.25 9.563 H 96.37 v 25.379 c 0 10.129 2.059 20.023 5.934 29.234 h -73.09 c -8.582 0 -15.563 -6.98 -15.563 -15.558 V 29.27 c 0 -8.579 6.98 -15.56 15.563 -15.56 h 330.691 c 8.582 0 15.559 6.981 15.559 15.56 Z m -108.637 -52.708 l 14.938 -34.156 l 14.933 34.156 Z m -88.746 0 l 14.938 -34.156 l 14.933 34.156 Z m -88.75 0 l 14.941 -34.156 l 14.934 34.156 Z m 0 0" fill="#000000"/>
</svg>