<svg xmlns="http://www.w3.org/2000/svg" viewBox="0.5 0.499999 64 64.1">
	<path d="M 64.5 9.5 c 0 -5 -4 -9 -9 -9 s -9 4 -9 9 c 0 4.3 3 7.9 7 8.8 v 12.2 h -19 V 18.3 c 4 -0.9 7 -4.5 7 -8.8 c 0 -5 -4 -9 -9 -9 s -9 4 -9 9 c 0 4.3 3 7.9 7 8.8 v 12.2 h -19 V 18.3 c 4 -0.9 7 -4.5 7 -8.8 c 0 -5 -4 -9 -9 -9 s -9 4 -9 9 c 0 4.3 3 7.9 7 8.8 v 28.5 c -4 0.9 -7 4.5 -7 8.8 c 0 5 4 9 9 9 s 9 -4 9 -9 c 0 -4.3 -3 -7.9 -7 -8.8 V 34.5 h 19 v 12.2 c -4 0.9 -7 4.5 -7 8.8 c 0 5 4 9 9 9 s 9 -4 9 -9 c 0 -4.3 -3 -7.9 -7 -8.8 V 34.5 h 21 c 1.1 0 2 -0.9 2 -2 V 18.3 c 4 -0.9 7 -4.5 7 -8.8 Z m -37 0 c 0 -2.8 2.2 -5 5 -5 s 5 2.2 5 5 s -2.2 5 -5 5 s -5 -2.2 -5 -5 Z m -23 0 c 0 -2.8 2.2 -5 5 -5 s 5 2.2 5 5 s -2.2 5 -5 5 s -5 -2.2 -5 -5 Z m 10 46 c 0 2.8 -2.2 5 -5 5 s -5 -2.2 -5 -5 s 2.2 -5 5 -5 s 5 2.2 5 5 Z m 23 0 c 0 2.8 -2.2 5 -5 5 s -5 -2.2 -5 -5 s 2.2 -5 5 -5 s 5 2.2 5 5 Z m 18 -41 c -2.8 0 -5 -2.2 -5 -5 s 2.2 -5 5 -5 s 5 2.2 5 5 s -2.2 5 -5 5 Z" fill="#000000"/>
</svg>