<svg xmlns="http://www.w3.org/2000/svg" viewBox="1 11 62.02 42">
	<path d="M 48.455 18.666 a 56.021 56.021 0 0 1 14.527 -1.657 l 0.036 -2 a 57.7 57.7 0 0 0 -15.052 1.719 a 3.45 3.45 0 0 0 -2.358 2.058 l -2.184 5.462 A 2.991 2.991 0 0 0 41 23 h -2 a 3 3 0 0 0 0 6 h 2.132 L 39.8 31 H 36 a 4 4 0 0 0 -4 4 v 14.5 a 1.5 1.5 0 0 1 -3 0 V 28 a 4 4 0 0 0 -4 -4 h -3 v -9 a 4 4 0 0 0 -4 -4 H 8 a 4 4 0 0 0 -4 4 v 32 H 2 a 1 1 0 0 0 -1 1 v 4 a 1 1 0 0 0 1 1 h 22 a 1 1 0 0 0 1 -1 v -4 a 1 1 0 0 0 -1 -1 h -2 V 26 h 3 a 2 2 0 0 1 2 2 v 21.5 a 3.5 3.5 0 0 0 7 0 V 35 a 2 2 0 0 1 2 -2 h 2.632 A 7.566 7.566 0 0 0 38 36 v 14 a 3 3 0 0 0 3 3 h 4 a 3 3 0 0 0 3 -3 v -3 h 15 v -2 H 42 a 2 2 0 0 1 -2 -2 v -1 h 6.293 a 3.707 3.707 0 0 0 0.609 -7.363 l -6.35 -1.059 a 5.683 5.683 0 0 1 0.389 -0.687 L 43.5 29.05 l 2.44 0.221 A 177.74 177.74 0 0 0 62 30 h 1.006 l -0.012 -2 H 62 c -4.444 0 -8.925 -0.182 -13.361 -0.521 l 2.094 -5.585 a 71.193 71.193 0 0 1 12.252 -0.887 l 0.03 -2 a 73.242 73.242 0 0 0 -13.179 1.007 a 1 1 0 0 0 -0.773 0.634 l -2.5 6.666 c -0.146 -0.013 -0.294 -0.021 -0.44 -0.035 l -1.7 -0.154 l 3.039 -7.6 a 1.448 1.448 0 0 1 0.993 -0.859 Z M 8 13 h 10 a 2 2 0 0 1 2 2 v 0.556 A 3.959 3.959 0 0 0 18 15 H 8 a 3.959 3.959 0 0 0 -2 0.556 V 15 a 2 2 0 0 1 2 -2 Z m -2 6 a 2 2 0 0 1 2 -2 h 10 a 2 2 0 0 1 2 2 v 4 a 2 2 0 0 1 -2 2 H 8 a 2 2 0 0 1 -2 -2 Z m 17 32 H 3 v -2 h 20 Z M 6 47 V 26.444 A 3.959 3.959 0 0 0 8 27 h 10 a 3.959 3.959 0 0 0 2 -0.556 V 47 Z m 36 0 h 4 v 3 a 1 1 0 0 1 -1 1 h -4 a 1 1 0 0 1 -1 -1 v -3.554 A 3.957 3.957 0 0 0 42 47 Z m 4.575 -10.39 a 1.707 1.707 0 0 1 -0.282 3.39 H 40 v -4 c 0 -0.162 0.021 -0.321 0.035 -0.481 Z M 38 26 a 1 1 0 0 1 1 -1 h 2 a 1 1 0 0 1 1 1 v 1 h -3 a 1 1 0 0 1 -1 -1 Z" fill="#000000"/>
</svg>