<svg xmlns="http://www.w3.org/2000/svg" viewBox="0.000428444 21.458 229.4 186.5">
	<path d="m 227.253 74.302 l -35.177 -35.177 a 7.5 7.5 0 0 0 -10.607 10.606 l 21.999 21.999 v 84.452 c 0 7.334 -5.966 13.301 -13.3 13.301 c -7.334 0 -13.301 -5.967 -13.301 -13.301 v -20.657 c 0 -13.008 -8.825 -23.988 -20.801 -27.284 V 49.479 c 0 -15.451 -12.57 -28.021 -28.021 -28.021 H 76.816 c -15.451 0 -28.021 12.57 -28.021 28.021 v 143.514 h -9.802 c -4.143 0 -7.5 3.358 -7.5 7.5 s 3.357 7.5 7.5 7.5 h 126.874 c 4.143 0 7.5 -3.358 7.5 -7.5 s -3.357 -7.5 -7.5 -7.5 h -9.801 v -68.441 c 3.499 2.398 5.801 6.421 5.801 10.975 v 20.657 c 0 15.605 12.695 28.301 28.301 28.301 c 15.605 0 28.3 -12.696 28.3 -28.301 V 86.25 a 7.495 7.495 0 0 0 3.481 0.855 a 7.5 7.5 0 0 0 5.304 -12.803 Z M 63.795 70.611 h 77.272 v 35.811 H 63.795 V 70.611 Z m 13.021 -34.154 h 51.229 c 7.18 0 13.021 5.841 13.021 13.021 v 6.133 H 63.795 v -6.133 c 0 -7.18 5.842 -13.021 13.021 -13.021 Z M 63.795 192.992 v -71.57 h 77.272 v 71.57 H 63.795 Z M 36.513 135.971 c 0 -0.186 -0.006 -0.37 -0.02 -0.552 l -0.001 -42.432 a 7.501 7.501 0 0 0 -12.804 -5.303 L 2.196 109.175 a 7.502 7.502 0 0 0 0.001 10.607 l 21.493 21.492 a 7.498 7.498 0 0 0 5.305 2.197 l 0.094 -0.001 a 7.5 7.5 0 0 0 7.424 -7.499 Z" fill="#000000"/>
</svg>