<svg width="97" height="26" viewBox="0 0 97 26" fill="none" xmlns="http://www.w3.org/2000/svg">
<path d="M51.7666 12.9712L38.8476 0.0566406V25.8557L51.7666 12.9712Z" fill="red"/>
<path d="M25.9283 12.9712L38.8476 0.0566406H13.009L25.9283 12.9712Z" fill="red"/>
<path d="M0.0594482 12.9712L13.009 25.8557V0.0566406L0.0594482 12.9712Z" fill="red"/>
<path d="M25.9283 12.9712L13.009 25.8557H38.8473L25.9283 12.9712Z" fill="red"/>
<path d="M63.1047 13.7294H58.424V18.3375H56.0834V7.5448H58.424V11.9709H63.1047V7.5448H65.4453V18.3375H63.1047V13.7294Z" fill="black"/>
<path d="M71.0999 18.5496C68.7593 18.5496 66.844 17.6098 66.8138 15.033H69.1545C69.1849 16.1849 69.8537 16.882 71.1303 16.882C72.0727 16.882 73.1669 16.3971 73.1669 15.336C73.1669 14.487 72.4375 14.2445 71.2215 13.8808L70.4311 13.6694C68.7288 13.1845 67.0265 12.5175 67.0265 10.5773C67.0265 8.18223 69.276 7.36389 71.3126 7.36389C73.41 7.36389 75.2339 8.09136 75.2644 10.4864H72.9237C72.8326 9.51619 72.255 8.94034 71.1605 8.94034C70.2791 8.94034 69.4278 9.39521 69.4278 10.3652C69.4278 11.1534 70.1572 11.3954 71.6773 11.8809L72.5892 12.1537C74.4433 12.7299 75.6291 13.3665 75.6291 15.1854C75.5989 17.61 73.2278 18.5496 71.0999 18.5496Z" fill="black"/>
<path d="M76.9362 7.57515H80.7055C81.4171 7.5399 82.1305 7.58055 82.8334 7.6964C84.1405 7.99964 85.1436 8.84836 85.1436 10.3036C85.1436 11.698 84.2621 12.3954 82.9852 12.7287C84.4443 13.0016 85.5388 13.7291 85.5388 15.3359C85.5388 17.7925 83.1068 18.3372 81.2215 18.3372H76.9667L76.9362 7.57515ZM80.7055 12.062C81.7385 12.062 82.803 11.8507 82.803 10.6068C82.803 9.48523 81.8301 9.18198 80.8575 9.18198H79.2154V12.0612L80.7055 12.062ZM80.9174 16.7306C82.0118 16.7306 83.0758 16.4881 83.0758 15.1542C83.0758 13.8202 82.1639 13.5777 81.0392 13.5777H79.1852V16.7306H80.9174Z" fill="black"/>
<path d="M91.6187 18.5493C88.1225 18.5493 86.5725 16.3362 86.5725 13.0317C86.5725 9.72719 88.3053 7.3324 91.7403 7.3324C93.8987 7.3324 95.9961 8.30262 96.0576 10.7278H93.6259C93.5043 9.63632 92.7746 9.09006 91.7411 9.09006C89.6132 9.09006 88.9748 11.3639 88.9748 13.0917C88.9748 14.8195 89.6132 16.8207 91.65 16.8207C92.7139 16.8207 93.504 16.2446 93.6563 15.1534H96.0867C95.8438 17.6398 93.8682 18.5493 91.6187 18.5493Z" fill="black"/>
</svg>
