<svg xmlns="http://www.w3.org/2000/svg" viewBox="-0.0000038147 53 468 362">
	<path d="m 450.1 187.5 l -10.2 -10.8 l -35.8 -96.5 C 398 63.9 382.4 53.1 365 53 H 109.3 c -17.4 0 -33 10.9 -39.1 27.2 l -35.3 95.3 l -14.7 13.6 C 7.4 200 0 216 0 232.8 v 140.6 c 0.1 23 18.8 41.6 41.8 41.6 h 26.4 c 23 0 41.7 -18.6 41.8 -41.6 V 353 h 248 v 20.4 c 0.1 23 18.8 41.6 41.8 41.6 h 26.4 c 23 0 41.7 -18.6 41.8 -41.6 V 229.1 c -0.1 -15.7 -6.5 -30.7 -17.9 -41.6 Z M 89 87 c 3.2 -8.5 11.3 -14 20.3 -14 h 255.8 c 9 0 17.1 5.6 20.3 14 l 31.2 84 h -23.3 c -5.5 -37.5 -40.4 -63.4 -77.9 -57.8 c -29.9 4.4 -53.4 27.9 -57.8 57.8 H 57.8 L 89 87 Z m 283.9 84 h -95.1 c 5.5 -26.3 31.3 -43.1 57.6 -37.6 c 18.8 4 33.5 18.7 37.5 37.6 Z M 90 373.4 c -0.1 12 -9.8 21.6 -21.8 21.6 H 41.8 c -12 0 -21.7 -9.6 -21.8 -21.6 v -26.2 c 6 3.9 13.9 5.8 21.8 5.8 H 90 v 20.4 Z m 358 0 c -0.1 12 -9.8 21.6 -21.8 21.6 h -26.4 c -12 0 -21.7 -9.7 -21.8 -21.6 V 353 h 48.2 c 7.9 0 15.8 -1.9 21.8 -5.8 v 26.2 Z M 426.2 333 H 41.8 c -11.9 0.1 -21.7 -9.4 -21.8 -21.4 v -78.8 c 0 -11 4.9 -21.5 13.3 -28.6 l 0.4 -0.4 L 47.3 191 H 426 l 9.6 10.3 c 0.1 0.2 0.4 0.3 0.5 0.5 c 7.5 7.1 11.8 17 11.8 27.3 v 82.5 h 0.1 c -0.1 11.9 -9.9 21.5 -21.8 21.4 Z M 132 231 H 57 c -5.5 0 -10 4.5 -10 10 v 52 c 0 5.5 4.5 10 10 10 h 75 c 5.5 0 10 -4.5 10 -10 v -52 c 0 -5.5 -4.5 -10 -10 -10 Z m -10 52 H 67 v -32 h 55 v 32 Z M 411 231 h -75 c -5.5 0 -10 4.5 -10 10 v 52 c 0 5.5 4.5 10 10 10 h 75 c 5.5 0 10 -4.5 10 -10 v -52 c 0 -5.5 -4.5 -10 -10 -10 Z m -10 52 h -55 v -32 h 55 v 32 Z M 282.3 273 h -96.6 c -5.5 0 -10 4.5 -10 10 s 4.5 10 10 10 h 96.6 c 5.5 0 10 -4.5 10 -10 s -4.5 -10 -10 -10 Z M 282.3 242 h -96.6 c -5.5 0 -10 4.5 -10 10 s 4.5 10 10 10 h 96.6 c 5.5 0 10 -4.5 10 -10 s -4.5 -10 -10 -10 Z" fill="#000000"/>
</svg>