<svg xmlns="http://www.w3.org/2000/svg" viewBox="8.95882e-7 0.210999 416.4 252.6">
	<path d="M 129.707 13.863 h 61.438 a 6.822 6.822 0 0 0 6.828 -6.824 a 6.825 6.825 0 0 0 -6.828 -6.828 h -61.438 a 6.828 6.828 0 0 0 -6.828 6.828 a 6.824 6.824 0 0 0 6.828 6.824 Z M 75.094 34.344 h 95.574 a 6.82 6.82 0 0 0 6.824 -6.824 a 6.824 6.824 0 0 0 -6.824 -6.829 H 75.094 a 6.828 6.828 0 0 0 -6.828 6.829 a 6.824 6.824 0 0 0 6.828 6.824 Z M 354.973 121.387 h -23.496 c -7.72 0 -14.965 -3.43 -19.883 -9.395 a 0.45 0.45 0 0 1 -0.055 -0.066 c -0.004 0 -0.004 -0.004 -0.008 -0.008 c -0.027 -0.035 -0.066 -0.078 -0.094 -0.11 c -1.43 -1.73 -3.05 -3.597 -4.792 -5.535 c -0.196 -0.218 -0.364 -0.414 -0.563 -0.632 a 183.82 183.82 0 0 0 -6.266 -6.555 l -0.496 -0.492 a 178.664 178.664 0 0 0 -7.75 -7.235 c -0.097 -0.086 -0.195 -0.168 -0.293 -0.254 c -17.488 -15.312 -42.46 -31.117 -74.539 -36.195 a 6.544 6.544 0 0 0 -1.066 -0.086 H 65.082 c -11.207 0 -20.328 9.301 -20.328 20.735 v 4.074 c -7.828 9.363 -39.988 49.3 -44.668 78.203 a 6.488 6.488 0 0 0 -0.078 1.375 c 0.004 0.18 0.746 18.633 0.887 33.125 c 0.136 13.223 8.664 24.531 20.89 28.215 c 6.281 18.71 23.95 32.246 44.75 32.246 c 16.113 0 30.356 -8.125 38.88 -20.48 h 194.933 c 8.527 12.355 22.765 20.48 38.879 20.48 c 16.777 0 31.496 -8.82 39.875 -22.035 l 31.277 -3.61 a 6.822 6.822 0 0 0 6.043 -6.78 v -35.915 c 0.004 -34.777 -27.563 -63.07 -61.45 -63.07 Z m -197.961 1.703 h 129.707 v 25.808 c 0 23.415 -18.942 42.461 -42.219 42.461 h -45.266 c -23.28 0 -42.222 -19.047 -42.222 -42.46 Z m 0 -27.305 h 118.531 a 164.74 164.74 0 0 1 15.328 13.653 h -133.86 Z m -13.653 13.653 h -11.218 c -11.375 0 -22.274 -5.06 -29.637 -13.653 h 40.855 Z M 66.535 239.144 c -18.512 0 -33.574 -15.06 -33.574 -33.575 c 0 -18.511 15.062 -33.574 33.574 -33.574 c 18.516 0 33.574 15.063 33.574 33.574 c 0 18.516 -15.058 33.575 -33.574 33.575 Z m 272.695 0 c -18.515 0 -33.574 -15.06 -33.574 -33.575 c 0 -18.511 15.059 -33.574 33.574 -33.574 c 18.512 0 33.57 15.063 33.57 33.574 c 0 18.516 -15.062 33.575 -33.57 33.575 Z m 63.543 -24.86 l -17.601 2.031 c 0.808 -3.457 1.281 -7.043 1.281 -10.746 c 0 -26.039 -21.183 -47.226 -47.223 -47.226 c -26.043 0 -47.23 21.187 -47.23 47.226 c 0 4.547 0.684 8.93 1.887 13.094 H 111.875 c 1.207 -4.16 1.887 -8.547 1.887 -13.094 c 0 -26.039 -21.184 -47.226 -47.227 -47.226 c -25.437 0 -46.183 20.23 -47.137 45.441 c -2.968 -2.933 -4.804 -7.043 -4.847 -11.582 c -0.13 -13.07 -0.735 -29.258 -0.875 -32.832 c 0.176 -0.996 0.484 -2.05 0.738 -3.086 c 0.469 0.102 0.914 0.285 1.414 0.285 h 18.305 c 3.77 0 6.828 -3.05 6.828 -6.824 a 6.828 6.828 0 0 0 -6.828 -6.828 H 19.164 C 31.06 116.57 56.438 86.953 56.746 86.59 a 6.809 6.809 0 0 0 1.66 -4.457 v -6.574 c 0 -3.907 2.996 -7.082 6.676 -7.082 h 150.047 c 14.887 2.425 28.074 7.46 39.574 13.656 H 88.746 a 6.819 6.819 0 0 0 -6.105 3.773 a 6.82 6.82 0 0 0 0.644 7.145 l 6.73 8.976 c 9.895 13.192 25.641 21.063 42.126 21.063 h 11.218 v 25.808 c 0 30.942 25.063 56.114 55.875 56.114 H 244.5 c 30.809 0 55.875 -25.172 55.875 -56.114 V 123.09 h 2.91 c 7.402 7.613 17.485 11.95 28.192 11.95 h 23.496 c 15.636 0 29.5 7.835 38.226 19.874 h -4.078 a 6.824 6.824 0 0 0 -6.828 6.824 a 6.828 6.828 0 0 0 6.828 6.828 h 11.07 c 1.645 4.996 2.582 10.329 2.582 15.891 Z m 0 0" fill="#000000"/>
</svg>