<svg xmlns="http://www.w3.org/2000/svg" viewBox="0.000999972 0 382.3 382.3">
	<path d="M 382.293 191.148 C 382.293 85.746 296.547 0 191.148 0 C 88.363 0 4.313 81.547 0.2 183.34 c -0.05 0.332 -0.199 0.633 -0.199 0.98 c 0 0.27 0.121 0.5 0.152 0.762 c -0.062 2.02 -0.152 4.031 -0.152 6.066 c 0 57.98 25.984 109.98 66.883 145.063 c 0.117 0.09 0.18 0.223 0.305 0.305 c 0.023 0.015 0.058 0.015 0.082 0.03 c 33.39 28.493 76.644 45.747 123.878 45.747 c 47.223 0 90.473 -17.25 123.86 -45.734 c 0.031 -0.02 0.07 -0.028 0.097 -0.047 c 0.125 -0.082 0.188 -0.215 0.305 -0.301 c 40.899 -35.082 66.883 -87.082 66.883 -145.063 Z M 39.988 177.492 H 14.23 c 2.895 -37.84 17.668 -72.398 40.641 -99.922 l 16.41 14.383 a 6.792 6.792 0 0 0 4.5 1.695 a 6.826 6.826 0 0 0 4.5 -11.96 L 64.035 67.445 c 30.778 -31.62 73.203 -51.828 120.285 -53.62 v 33.96 a 6.825 6.825 0 0 0 6.828 6.828 a 6.822 6.822 0 0 0 6.825 -6.828 v -33.96 c 47.03 1.792 89.41 21.948 120.183 53.51 l -17.011 14.25 a 6.832 6.832 0 0 0 4.394 12.063 a 6.796 6.796 0 0 0 4.379 -1.593 l 17.41 -14.586 c 23.027 27.539 37.836 62.136 40.735 100.023 h -26.731 a 6.824 6.824 0 0 0 -6.824 6.828 c 0 3.77 3.05 6.828 6.824 6.828 h 27.309 c 0 39.536 -13.004 76.086 -34.946 105.618 l -23.742 -20.149 a 6.836 6.836 0 0 0 -9.629 0.785 a 6.827 6.827 0 0 0 0.79 9.621 l 23.995 20.368 a 180.455 180.455 0 0 1 -12.656 13.156 c -13.7 -18.563 -31.172 -33.465 -50.992 -43.93 c 25.41 -20.941 40.387 -52.328 40.387 -85.469 c 0 -26.668 -9.48 -51.156 -25.243 -70.289 l 14.715 -13.418 a 6.821 6.821 0 0 0 0.45 -9.64 c -2.54 -2.79 -6.868 -2.98 -9.649 -0.446 l -14.894 13.582 c -19.86 -18.843 -46.61 -30.492 -76.079 -30.492 c -61.043 0 -110.703 49.66 -110.703 110.703 c 0 33.262 14.97 64.516 40.407 85.457 c -19.832 10.465 -37.309 25.372 -51.008 43.942 A 178.8 178.8 0 0 1 56.77 306.91 l 23.433 -19.887 a 6.827 6.827 0 0 0 0.785 -9.62 a 6.832 6.832 0 0 0 -9.629 -0.79 L 48.23 296.246 c -21.71 -29.441 -34.578 -65.793 -34.578 -105.098 h 26.336 a 6.824 6.824 0 0 0 6.825 -6.828 c 0 -3.77 -3.051 -6.828 -6.825 -6.828 Z m 94.89 92.621 c -25.53 -18.226 -40.776 -47.558 -40.776 -78.965 c 0 -53.515 43.53 -97.05 97.046 -97.05 c 25.48 0 48.625 9.949 65.957 26.066 l -39.18 35.719 c -7.448 -5.672 -16.714 -9.082 -26.777 -9.082 c -24.453 0 -44.347 19.894 -44.347 44.347 c 0 24.454 19.894 44.344 44.347 44.344 c 24.454 0 44.344 -19.89 44.344 -44.344 c 0 -9.468 -3.004 -18.23 -8.078 -25.441 l 39.07 -35.617 c 13.551 16.691 21.711 37.93 21.711 61.058 c 0 31.286 -15.21 60.793 -40.687 79 a 150.575 150.575 0 0 0 -56.36 -10.949 c -19.613 0 -38.652 3.82 -56.27 10.914 Z m 86.962 -78.965 c 0 16.922 -13.766 30.692 -30.692 30.692 c -16.93 0 -30.695 -13.77 -30.695 -30.692 c 0 -16.925 13.766 -30.695 30.695 -30.695 c 16.926 0 30.692 13.77 30.692 30.695 Z M 80.2 329.543 c 25.827 -35.59 66.823 -56.691 110.948 -56.691 c 44.122 0 85.118 21.105 110.946 56.691 c -30.414 24.434 -68.989 39.098 -110.946 39.098 c -41.96 0 -80.535 -14.664 -110.949 -39.098 Z m 0 0" fill="#000000"/>
</svg>