<svg width="75" height="14" viewBox="0 0 75 14" fill="none" xmlns="http://www.w3.org/2000/svg">
<g clip-path="url(#clip0_395_449)">
<path d="M10.2045 6.79491C10.1733 6.32735 10.0486 5.85979 9.79927 5.45457L7.67967 1.74526C7.52382 1.46472 7.39913 1.15302 7.33679 0.841309L7.24328 0.997162C6.71338 1.90111 6.71338 3.05443 7.24328 3.95838L8.95767 6.91959C9.48757 7.82354 9.48757 8.97686 8.95767 9.88081L8.86415 10.0367C8.80181 9.72496 8.67713 9.41325 8.52128 9.13271L6.96275 6.42086L5.96529 4.6753C5.80943 4.39477 5.68475 4.08306 5.62241 3.77135L5.5289 3.92721C4.999 4.83116 4.999 5.9533 5.5289 6.88842L7.24328 9.84964C7.77318 10.7536 7.77318 11.9069 7.24328 12.8109L7.14977 12.9667C7.08743 12.655 6.96275 12.3433 6.80689 12.0628L4.65612 8.35345C4.37558 7.85472 4.2509 7.29364 4.2509 6.73257C1.97544 7.32481 0.385742 8.60281 0.385742 10.0678C0.385742 12.1251 3.44046 13.7771 7.21211 13.7771C10.9838 13.7771 14.0385 12.1251 14.0385 10.0678C14.0696 8.66515 12.5111 7.38716 10.2045 6.79491ZM16.6568 13.1226C16.688 12.5927 16.7503 12.2498 16.9062 11.8134C17.6231 12.1563 18.5582 12.3121 19.244 12.3121C20.4285 12.3121 21.1142 11.9381 21.1142 11.1588C21.1142 10.4107 20.6155 10.0678 19.431 9.53793L18.7764 9.28857C17.5608 8.75867 16.7503 8.07291 16.7503 6.73257C16.7503 5.26755 17.779 4.33243 19.8362 4.33243C20.6778 4.33243 21.4571 4.45711 22.174 4.70648C22.1428 5.20521 22.0493 5.61042 21.9247 5.98447C21.2389 5.73511 20.3973 5.61042 19.805 5.61042C18.6829 5.61042 18.1842 6.04681 18.1842 6.73257C18.1842 7.38715 18.6829 7.79237 19.5869 8.16642L20.2726 8.44696C21.8935 9.13271 22.5792 9.88081 22.5792 11.1276C22.5792 12.5927 21.4571 13.6213 19.2751 13.6213C18.2465 13.6213 17.3737 13.4654 16.6568 13.1226ZM29.4679 6.98194V13.4031H28.1588L28.0964 12.6238C27.7224 13.1849 27.1925 13.559 26.2885 13.559C24.6053 13.559 23.452 12.3121 23.452 10.1613C23.452 7.91706 24.6677 6.60789 27.0366 6.60789C27.9718 6.63906 28.751 6.73257 29.4679 6.98194ZM28.0653 11.9381V7.91706C27.7847 7.85472 27.4419 7.85472 27.0366 7.85472C25.5716 7.85472 24.8859 8.75867 24.8859 10.1925C24.8859 11.5017 25.4158 12.4368 26.6626 12.4368C27.2548 12.4056 27.6912 12.2186 28.0653 11.9381ZM36.6995 9.10154V13.4031H35.2969V9.35091C35.2969 8.32228 34.954 7.85472 33.5513 7.85472C33.2084 7.85472 32.8344 7.88589 32.4292 7.94823V13.4031H31.0265V6.98194C31.9304 6.76374 32.9279 6.60789 33.5825 6.60789C35.9514 6.63906 36.6995 7.54301 36.6995 9.10154ZM40.627 12.3745C41.0322 12.3745 41.4375 12.3121 41.718 12.1874C41.6868 12.5615 41.6245 12.9979 41.5621 13.3719C41.1881 13.5278 40.7517 13.5901 40.3777 13.5901C39.0062 13.5901 38.1334 12.9667 38.1334 11.4082V4.64413C38.5698 4.48828 39.0997 4.42594 39.5361 4.42594V6.85725H41.7803C41.7492 7.29364 41.718 7.69886 41.6557 8.07291H39.5361V11.2212C39.5361 12.0316 39.9413 12.3745 40.627 12.3745ZM48.2015 6.98194V13.4031H46.8923L46.83 12.6238C46.4559 13.1849 45.926 13.559 45.0221 13.559C43.3389 13.559 42.1856 12.3121 42.1856 10.1613C42.1856 7.91706 43.4012 6.60789 45.7702 6.60789C46.7053 6.63906 47.4534 6.73257 48.2015 6.98194ZM46.7676 11.9381V7.91706C46.4871 7.85472 46.1442 7.85472 45.739 7.85472C44.274 7.85472 43.5882 8.75867 43.5882 10.1925C43.5882 11.5017 44.1181 12.4368 45.365 12.4368C45.9572 12.4056 46.4248 12.2186 46.7676 11.9381ZM55.4331 9.10154V13.4031H53.9992V9.35091C53.9992 8.32228 53.6564 7.85472 52.2537 7.85472C51.9108 7.85472 51.5368 7.88589 51.1315 7.94823V13.4031H49.7289V6.98194C50.6328 6.76374 51.6303 6.60789 52.2848 6.60789C54.6538 6.63906 55.4331 7.54301 55.4331 9.10154ZM62.5712 4.42594V13.4031H61.262L61.1996 12.5927C60.8256 13.1849 60.2957 13.559 59.3606 13.559C57.6774 13.559 56.5241 12.3121 56.5241 10.1613C56.5241 7.91706 57.7397 6.60789 60.1087 6.60789C60.4827 6.60789 60.8256 6.63906 61.1685 6.7014V4.58179C61.6049 4.45711 62.1036 4.42594 62.5712 4.42594ZM61.1685 11.9381V7.9794C60.7944 7.91706 60.4204 7.85472 60.0463 7.85472C58.6437 7.85472 57.9891 8.72749 57.9891 10.1925C57.9891 11.5017 58.519 12.4368 59.7658 12.4368C60.3269 12.4056 60.7944 12.2186 61.1685 11.9381ZM69.6781 10.6601H65.1583C65.3453 11.8134 65.9999 12.3433 67.2779 12.3433C68.0572 12.3433 68.8365 12.1874 69.5222 11.8446C69.4599 12.2186 69.3975 12.7173 69.304 13.1226C68.6494 13.4031 67.9948 13.5278 67.2156 13.5278C64.8466 13.5278 63.7245 12.2186 63.7245 10.0367C63.7245 8.13525 64.5972 6.60789 66.8415 6.60789C68.8676 6.60789 69.7404 7.91706 69.7404 9.53793C69.7404 9.97432 69.7404 10.286 69.6781 10.6601ZM65.1583 9.47559H68.3377C68.3377 8.41579 67.7767 7.79237 66.8104 7.79237C65.7817 7.82354 65.2518 8.38462 65.1583 9.47559ZM74.6342 6.7014C74.6342 7.13779 74.5719 7.63652 74.5095 7.91706C74.1666 7.88589 73.8549 7.85472 73.4497 7.85472C73.1068 7.85472 72.764 7.88589 72.4211 7.91706V13.4031H71.0184V6.98194C71.6106 6.76374 72.6393 6.60789 73.4185 6.60789C73.8238 6.63906 74.3225 6.63906 74.6342 6.7014Z" fill="#EA1D25"/>
</g>
<defs>
<clipPath id="clip0_395_449">
<rect width="74.2485" height="12.9358" fill="white" transform="translate(0.385742 0.841309)"/>
</clipPath>
</defs>
</svg>
