<?xml version="1.0" encoding="UTF-8"?>
<svg version="1.1" xmlns="http://www.w3.org/2000/svg" width="512" height="512">
<path d="M0 0 C4.14610983 4.59555263 4.59080411 8.19043059 4.3125 14.3046875 C4.00390625 16.66015625 4.00390625 16.66015625 3.00390625 18.66015625 C2.34390625 18.66015625 1.68390625 18.66015625 1.00390625 18.66015625 C0.67390625 19.65015625 0.34390625 20.64015625 0.00390625 21.66015625 C-3.23915156 24.47080635 -6.04933801 24.8462093 -10.18359375 25.09765625 C-16.05674593 25.47118555 -20.67500956 27.27758124 -25.99609375 29.66015625 C-27.48109375 30.15515625 -27.48109375 30.15515625 -28.99609375 30.66015625 C-29.32609375 31.65015625 -29.65609375 32.64015625 -29.99609375 33.66015625 C-30.65609375 33.66015625 -31.31609375 33.66015625 -31.99609375 33.66015625 C-32.26421875 34.36140625 -32.53234375 35.06265625 -32.80859375 35.78515625 C-33.99609375 38.66015625 -33.99609375 38.66015625 -35.55859375 41.28515625 C-38.5386331 48.28177037 -38.80600862 55.56846633 -35.99609375 62.66015625 C-35.76148438 63.30597656 -35.526875 63.95179688 -35.28515625 64.6171875 C-32.77010669 70.65099907 -28.55412906 74.33252993 -22.99609375 77.66015625 C-15.80952318 80.58334239 -7.20871587 80.98285992 0.25390625 78.66015625 C6.37219405 75.90627724 11.48403191 71.16059467 14.94140625 65.47265625 C16.20776604 60.92865936 16.84498093 56.42906372 17.37890625 51.74609375 C18.23002036 47.54371782 19.77017512 44.89388738 22.7890625 41.875 C25.76953078 40.24021052 28.05577184 40.22657028 31.44140625 40.22265625 C32.55386719 40.20332031 33.66632813 40.18398437 34.8125 40.1640625 C38.64933204 40.7604856 40.24853179 41.97806303 43.00390625 44.66015625 C46.03922667 49.26546999 46.75289285 53.27577477 46.00390625 58.66015625 C43.02133031 73.01179856 38.30852859 83.10858217 28.00390625 93.66015625 C28.46796875 94.55734375 28.46796875 94.55734375 28.94140625 95.47265625 C30.00390625 97.66015625 30.00390625 97.66015625 31.00390625 100.66015625 C31.99390625 100.99015625 32.98390625 101.32015625 34.00390625 101.66015625 C38.83142867 107.91662531 41.65295709 115.18911107 44.00390625 122.66015625 C44.23078125 123.33691406 44.45765625 124.01367188 44.69140625 124.7109375 C48.36877476 137.04544439 45.46718098 150.57005272 40.19140625 162.03515625 C32.07133245 176.65763289 19.40808656 187.04171399 3.375 191.71875 C-11.56403613 195.35581226 -26.7342542 192.66064322 -39.85864258 185.05444336 C-45.76103545 181.41347869 -50.49629815 176.93348418 -54.99609375 171.66015625 C-55.58003906 170.98726562 -56.16398437 170.314375 -56.765625 169.62109375 C-63.8472851 160.33425849 -66.95482104 146.83513739 -66.41015625 135.33984375 C-65.70043738 130.74675749 -63.98200823 128.29916415 -60.453125 125.38671875 C-56.61794899 122.7714271 -53.48204644 122.11765642 -48.921875 122.9765625 C-44.42154679 124.57404209 -41.61322171 127.73446432 -38.99609375 131.66015625 C-38.68988189 133.84049809 -38.44825059 136.03021723 -38.24609375 138.22265625 C-37.05217727 147.12192599 -34.06268913 153.55391111 -26.93359375 159.16015625 C-19.41536029 164.44905668 -10.89619265 164.93513252 -1.99609375 163.66015625 C5.439337 161.13364683 11.42149763 155.61729764 15.00390625 148.66015625 C17.32695835 140.96805843 17.76032573 133.2816561 15.00390625 125.66015625 C13.81284057 123.49007068 12.49520599 121.64855591 11.00390625 119.66015625 C11.00390625 119.00015625 11.00390625 118.34015625 11.00390625 117.66015625 C10.34390625 117.66015625 9.68390625 117.66015625 9.00390625 117.66015625 C8.67390625 117.00015625 8.34390625 116.34015625 8.00390625 115.66015625 C7.01390625 115.33015625 6.02390625 115.00015625 5.00390625 114.66015625 C5.00390625 114.00015625 5.00390625 113.34015625 5.00390625 112.66015625 C-0.91735014 110.18399449 -6.09372626 109.40228951 -12.43359375 109.16015625 C-28.80719441 108.44325806 -41.65267572 101.59557084 -52.99609375 89.66015625 C-63.07677139 78.06214478 -65.51039806 65.56213278 -67.33007812 50.6640625 C-68.42305733 42.83505724 -70.26287052 37.02330344 -76.2421875 31.63671875 C-84.1675947 26.74867795 -90.58839569 24.62504741 -99.99609375 25.66015625 C-107.42087319 27.65362597 -113.86527496 32.30777522 -118.34765625 38.5390625 C-121.83585247 44.75005936 -122.8235547 51.82452488 -121.30859375 58.78515625 C-119.25174866 65.55903276 -116.83040332 70.44648823 -110.99609375 74.66015625 C-110.99609375 75.32015625 -110.99609375 75.98015625 -110.99609375 76.66015625 C-110.39796875 76.88703125 -109.79984375 77.11390625 -109.18359375 77.34765625 C-106.25982374 79.10191826 -105.35761912 80.52864789 -103.99609375 83.66015625 C-103.27555815 90.04204297 -104.1520421 93.50103429 -107.99609375 98.66015625 C-112.44506604 101.79465946 -116.69945689 102.47987386 -121.99609375 101.66015625 C-125.49609375 100.16015625 -125.49609375 100.16015625 -127.99609375 98.66015625 C-127.99609375 98.00015625 -127.99609375 97.34015625 -127.99609375 96.66015625 C-128.55296875 96.43328125 -129.10984375 96.20640625 -129.68359375 95.97265625 C-138.39751093 91.02691947 -144.78981159 80.42266763 -147.8359375 71.0859375 C-149.6896747 64.32579138 -150.46738642 57.63883064 -151.15234375 50.69140625 C-151.76686406 45.1607235 -153.11619866 41.3639849 -155.99609375 36.66015625 C-155.99609375 36.00015625 -155.99609375 35.34015625 -155.99609375 34.66015625 C-156.65609375 34.66015625 -157.31609375 34.66015625 -157.99609375 34.66015625 C-158.80046875 33.79390625 -158.80046875 33.79390625 -159.62109375 32.91015625 C-165.66224263 27.18696258 -172.93898695 25.31338306 -181.07421875 25.3671875 C-185.56995064 25.81796276 -189.03771029 27.60147891 -192.99609375 29.66015625 C-193.98609375 30.01078125 -194.97609375 30.36140625 -195.99609375 30.72265625 C-196.65609375 31.03203125 -197.31609375 31.34140625 -197.99609375 31.66015625 C-198.32609375 32.65015625 -198.65609375 33.64015625 -198.99609375 34.66015625 C-199.65609375 34.66015625 -200.31609375 34.66015625 -200.99609375 34.66015625 C-201.28484375 35.38203125 -201.57359375 36.10390625 -201.87109375 36.84765625 C-202.56306186 38.57757653 -203.27496999 40.29986854 -204.01953125 42.0078125 C-206.63468523 49.11057071 -206.94362019 57.6237208 -203.99609375 64.66015625 C-201.04115494 69.44699783 -197.52894272 73.35569716 -193.18359375 76.91015625 C-190.30531448 79.28392814 -188.70340866 80.8583386 -187.99609375 84.66015625 C-187.8635616 89.41364283 -188.29195418 93.29892494 -191.30859375 97.09765625 C-195.02397178 100.640226 -196.58503402 101.46882612 -201.68359375 102.16015625 C-209.86239597 101.90267544 -216.47591869 94.84748687 -221.8515625 89.29296875 C-230.74939474 78.36921842 -233.31317893 66.83717839 -234.67578125 53.24609375 C-235.41411368 46.83602587 -236.85113508 42.29002053 -239.99609375 36.66015625 C-239.99609375 36.00015625 -239.99609375 35.34015625 -239.99609375 34.66015625 C-240.65609375 34.66015625 -241.31609375 34.66015625 -241.99609375 34.66015625 C-242.53234375 34.08265625 -243.06859375 33.50515625 -243.62109375 32.91015625 C-249.65846976 27.19053687 -256.93801459 25.30646622 -265.0703125 25.37109375 C-271.22597865 25.9792637 -276.22712568 28.84498179 -280.99609375 32.66015625 C-281.65609375 32.66015625 -282.31609375 32.66015625 -282.99609375 32.66015625 C-283.42728516 33.53994141 -283.42728516 33.53994141 -283.8671875 34.4375 C-284.5505731 35.78298929 -285.26421362 37.11444236 -286.03125 38.4140625 C-290.37702054 46.06460152 -290.92599738 54.28279968 -288.65625 62.73046875 C-286.58894408 68.77336299 -282.35304784 72.43788525 -277.80859375 76.72265625 C-274.3116938 80.46072172 -273.53997746 83.42376724 -273.67578125 88.6328125 C-274.32816726 92.76193856 -276.7652178 95.55504371 -279.79296875 98.2734375 C-283.38794759 100.53623447 -286.51680783 100.56026615 -290.6953125 100.453125 C-299.19842265 98.41036599 -305.33282699 90.05775589 -309.99609375 83.09765625 C-318.18881117 69.1500544 -320.08703824 54.65620348 -317.3125 38.73828125 C-315.29607799 31.74355594 -312.12428645 25.63777927 -307.99609375 19.66015625 C-307.48175781 18.90863281 -306.96742188 18.15710938 -306.4375 17.3828125 C-305.96183594 16.81433594 -305.48617187 16.24585938 -304.99609375 15.66015625 C-304.33609375 15.66015625 -303.67609375 15.66015625 -302.99609375 15.66015625 C-302.99609375 15.00015625 -302.99609375 14.34015625 -302.99609375 13.66015625 C-301.32392799 12.11684389 -299.58157837 10.64900716 -297.80859375 9.22265625 C-296.84566406 8.44019531 -295.88273437 7.65773437 -294.890625 6.8515625 C-281.73730043 -3.1066225 -265.81503154 -3.99305939 -249.91455078 -2.09082031 C-239.81586068 -0.45177961 -231.57481796 5.04892875 -223.99609375 11.66015625 C-223.99609375 12.32015625 -223.99609375 12.98015625 -223.99609375 13.66015625 C-223.33609375 13.66015625 -222.67609375 13.66015625 -221.99609375 13.66015625 C-221.99609375 14.32015625 -221.99609375 14.98015625 -221.99609375 15.66015625 C-221.00609375 15.66015625 -220.01609375 15.66015625 -218.99609375 15.66015625 C-218.50109375 14.17515625 -218.50109375 14.17515625 -217.99609375 12.66015625 C-217.33609375 12.66015625 -216.67609375 12.66015625 -215.99609375 12.66015625 C-215.99609375 12.00015625 -215.99609375 11.34015625 -215.99609375 10.66015625 C-214.421875 9.2578125 -214.421875 9.2578125 -212.30859375 7.72265625 C-211.62410156 7.21863281 -210.93960938 6.71460938 -210.234375 6.1953125 C-196.61575251 -3.14520869 -179.95173214 -4.55386474 -163.92578125 -1.71484375 C-155.60732931 0.33277519 -149.52634489 4.22358944 -142.99609375 9.66015625 C-142.06925781 10.36140625 -141.14242187 11.06265625 -140.1875 11.78515625 C-139.46433594 12.40390625 -138.74117187 13.02265625 -137.99609375 13.66015625 C-137.99609375 14.32015625 -137.99609375 14.98015625 -137.99609375 15.66015625 C-137.04347656 14.90089844 -136.09085938 14.14164063 -135.109375 13.359375 C-133.84256998 12.35531473 -132.57563607 11.35141705 -131.30859375 10.34765625 C-130.68275391 9.84814453 -130.05691406 9.34863281 -129.41210938 8.83398438 C-115.21627701 -2.3888988 -100.64343177 -3.81594671 -82.99609375 -2.33984375 C-73.37053362 -1.06937569 -66.40710927 3.66978268 -58.99609375 9.66015625 C-56.70041799 11.45128789 -54.44699879 13.07728008 -51.99609375 14.66015625 C-51.00609375 14.33015625 -50.01609375 14.00015625 -48.99609375 13.66015625 C-48.66609375 12.67015625 -48.33609375 11.68015625 -47.99609375 10.66015625 C-39.98737773 2.4206415 -28.18544873 -1.4524857 -17.05859375 -2.83984375 C-16.3612915 -2.92911133 -15.66398926 -3.01837891 -14.94555664 -3.11035156 C-9.47442389 -3.64220357 -4.63594766 -3.11180048 0 0 Z " fill="#452669" transform="translate(377.99609375,170.33984375)"/>
<path d="M0 0 C0.495 0.474375 0.99 0.94875 1.5 1.4375 C2.16 0.4475 2.82 -0.5425 3.5 -1.5625 C8.375 -0.6875 8.375 -0.6875 9.5 0.4375 C9.62591278 2.93763176 9.68866689 5.40857812 9.703125 7.91015625 C9.70882507 8.66662949 9.71452515 9.42310272 9.72039795 10.20249939 C9.72986753 11.81068518 9.73638967 13.41889054 9.74023438 15.02709961 C9.7498645 17.46568905 9.78083583 19.90340823 9.8125 22.34179688 C9.81903763 23.90624501 9.82428511 25.47069917 9.828125 27.03515625 C9.8404718 27.75631119 9.8528186 28.47746613 9.86553955 29.22047424 C9.84127722 34.85450444 8.96005334 40.64402795 5.11871338 45.0059967 C0.45645853 49.10738945 -3.108098 49.72532394 -9.19921875 49.66796875 C-13.23393591 49.26381202 -19.5340298 48.4034702 -22.5 45.4375 C-22.54063832 43.77132885 -22.542721 42.10361905 -22.5 40.4375 C-18.76753824 39.25102209 -16.47672932 39.97538754 -12.73046875 41.015625 C-8.96490136 41.72785141 -5.20355002 41.3902805 -1.5 40.4375 C0.79575603 38.14174397 0.82339599 37.42907475 1.125 34.3125 C1.24875 33.03375 1.3725 31.755 1.5 30.4375 C0.489375 30.9325 -0.52125 31.4275 -1.5625 31.9375 C-6.20462543 33.87249417 -9.92552032 34.30294478 -14.80078125 32.6640625 C-19.39630706 30.54305059 -22.00952714 28.39818432 -24.125 23.75 C-26.29031736 17.08519291 -25.94018487 11.31786975 -22.8125 5.0625 C-16.69152089 -1.88563845 -8.34846206 -5.21778879 0 0 Z M-16.5 7.4375 C-17.86538938 10.16827876 -17.63231826 12.39310367 -17.625 15.4375 C-17.62757812 16.51 -17.63015625 17.5825 -17.6328125 18.6875 C-17.6872341 21.39932052 -17.6872341 21.39932052 -16.5 23.4375 C-15.84 23.4375 -15.18 23.4375 -14.5 23.4375 C-14.5 24.0975 -14.5 24.7575 -14.5 25.4375 C-9.28492188 27.17585937 -5.11190782 26.9843973 0 25.25 C3.59281812 21.20807962 3.13770804 17.78440223 3.1015625 12.53125 C2.39396267 8.89216517 1.36425662 7.71174121 -1.5 5.4375 C-6.64747523 2.86376239 -12.15600499 4.01495848 -16.5 7.4375 Z " fill="#68C6D9" transform="translate(109.5,314.5625)"/>
<path d="M0 0 C0.495 0.309375 0.99 0.61875 1.5 0.9375 C1.5 1.5975 1.5 2.2575 1.5 2.9375 C2.428125 3.30875 2.428125 3.30875 3.375 3.6875 C6.01117662 5.23819213 6.43289544 6.08252727 7.5 8.9375 C7.8359375 12.3984375 7.8359375 12.3984375 7.875 16.3125 C7.90335937 17.59898437 7.93171875 18.88546875 7.9609375 20.2109375 C7.27580648 25.75004758 4.93157569 28.76042666 0.6875 32.25 C-3.99931329 34.73125409 -7.57863329 35.41784168 -12.75 34.125 C-15.5 32.9375 -15.5 32.9375 -18.5 30.9375 C-18.83 36.8775 -19.16 42.8175 -19.5 48.9375 C-21.48 48.9375 -23.46 48.9375 -25.5 48.9375 C-26.5 47.9375 -26.5 47.9375 -26.62025452 45.99497986 C-26.61803391 45.14448563 -26.61581329 44.29399139 -26.61352539 43.41772461 C-26.61344986 42.45680405 -26.61337433 41.49588348 -26.61329651 40.50584412 C-26.60813522 39.461064 -26.60297394 38.41628387 -26.59765625 37.33984375 C-26.5962413 36.27584854 -26.59482635 35.21185333 -26.59336853 34.11561584 C-26.58775064 30.70204917 -26.57519511 27.288547 -26.5625 23.875 C-26.55748731 21.56705824 -26.552924 19.25911545 -26.54882812 16.95117188 C-26.5377754 11.27992574 -26.52101987 5.60871747 -26.5 -0.0625 C-23.625 -0.6875 -23.625 -0.6875 -20.5 -1.0625 C-19.84 -0.4025 -19.18 0.2575 -18.5 0.9375 C-17.345 0.421875 -16.19 -0.09375 -15 -0.625 C-9.65588042 -2.63378254 -5.3102747 -2.25686675 0 0 Z M-19.5 8.9375 C-19.5 13.8875 -19.5 18.8375 -19.5 23.9375 C-14.57057914 27.39858273 -11.59433386 28.36740651 -5.61328125 27.6875 C-2.6837262 26.64780579 -1.37482148 25.41656858 0.5 22.9375 C1.45461768 18.08382699 1.89245335 12.40750559 -0.60546875 7.9765625 C-3.16038936 5.60658253 -5.55451921 4.92857867 -8.9375 4.375 C-13.32677768 5.06804384 -15.79926914 6.52069617 -19.5 8.9375 Z " fill="#68C6D9" transform="translate(259.5,314.0625)"/>
<path d="M0 0 C4.01458969 3.30314341 5.33676908 6.39030246 5.88671875 11.40234375 C6.05158438 17.43367792 6.00508576 22.22061061 2.54296875 27.26953125 C1.88296875 27.26953125 1.22296875 27.26953125 0.54296875 27.26953125 C0.54296875 27.92953125 0.54296875 28.58953125 0.54296875 29.26953125 C-3.96710157 32.79302369 -8.99745136 33.67804253 -14.57421875 33.01953125 C-20.25389474 31.81929783 -23.76480298 29.54528651 -27.26953125 24.83203125 C-29.26352366 18.85005401 -29.70814901 12.03571651 -27.6953125 5.9765625 C-25.08435303 1.13648348 -22.21848368 -1.05298705 -17.20703125 -2.98046875 C-10.87266146 -4.24734271 -5.48619336 -3.55284375 0 0 Z M-20.45703125 7.26953125 C-22.43363392 11.22273659 -21.87989389 15.96006346 -21.45703125 20.26953125 C-20.26104082 23.53677102 -20.26104082 23.53677102 -17.45703125 25.26953125 C-13.50402937 26.3502602 -9.99916564 26.94289473 -6.17578125 25.2734375 C-5.60859375 24.94214844 -5.04140625 24.61085938 -4.45703125 24.26953125 C-4.45703125 23.60953125 -4.45703125 22.94953125 -4.45703125 22.26953125 C-3.79703125 22.26953125 -3.13703125 22.26953125 -2.45703125 22.26953125 C-1.01154694 17.93307833 -0.7856112 13.7962019 -1.45703125 9.26953125 C-3.70760692 6.18154451 -3.70760692 6.18154451 -6.45703125 4.26953125 C-6.78703125 3.93953125 -7.11703125 3.60953125 -7.45703125 3.26953125 C-13.3090532 2.78186275 -16.17297368 2.85565375 -20.45703125 7.26953125 Z " fill="#68C6D9" transform="translate(179.45703125,315.73046875)"/>
<path d="M0 0 C4.70588235 0.70588235 4.70588235 0.70588235 6 2 C6.12108515 3.67157492 6.17960329 5.34777569 6.2109375 7.0234375 C6.23929688 8.044375 6.26765625 9.0653125 6.296875 10.1171875 C6.34876692 12.28108067 6.39309465 14.44516905 6.4296875 16.609375 C6.460625 17.63289063 6.4915625 18.65640625 6.5234375 19.7109375 C6.54325684 20.65243652 6.56307617 21.59393555 6.58349609 22.56396484 C6.82302478 25.03673233 6.82302478 25.03673233 8.31884766 26.83447266 C10.12146461 28.32685537 10.12146461 28.32685537 13.375 27.9375 C17.54091504 26.86010818 19.15602123 26.23592207 22 23 C22.77087413 19.25843086 22.79073832 15.56071148 22.8125 11.75 C22.83763672 10.71875 22.86277344 9.6875 22.88867188 8.625 C22.94751562 6.08295011 22.98381507 3.54262084 23 1 C25.375 0.375 25.375 0.375 28 0 C30.86866884 2.86866884 30.25853358 4.89655613 30.265625 8.90625 C30.26753845 9.58675415 30.2694519 10.2672583 30.27142334 10.96838379 C30.27278463 12.40747446 30.26909205 13.84657744 30.26074219 15.28564453 C30.25004128 17.49149087 30.26063872 19.69652281 30.2734375 21.90234375 C30.27211589 23.29948097 30.26955348 24.69661768 30.265625 26.09375 C30.26336914 27.36927734 30.26111328 28.64480469 30.25878906 29.95898438 C30 33 30 33 28 35 C25.375 34.625 25.375 34.625 23 34 C22.67 33.01 22.34 32.02 22 31 C21.319375 31.639375 20.63875 32.27875 19.9375 32.9375 C16.39809902 35.42261133 14.31243139 35.92564773 10 36 C5.34055499 34.49950076 2.05215419 32.84416629 -1 29 C-1.4699707 25.99145508 -1.4699707 25.99145508 -1.42578125 22.51953125 C-1.41740234 21.27365234 -1.40902344 20.02777344 -1.40039062 18.74414062 C-1.37138672 17.44669922 -1.34238281 16.14925781 -1.3125 14.8125 C-1.30283203 13.50345703 -1.29316406 12.19441406 -1.28320312 10.84570312 C-1.16768973 1.16768973 -1.16768973 1.16768973 0 0 Z " fill="#68C6D9" transform="translate(194,313)"/>
<path d="M0 0 C3.97727594 2.27477293 6.54387347 4.63162042 8 9 C8.47605479 13.95096981 7.97370412 17.3398423 5.33203125 21.484375 C2.94364517 24.20195212 0.4216428 25.05609854 -3 26 C-7.99713831 25.89801759 -11.16928933 24.14969544 -15 21 C-17.39994153 17.51621391 -18.02386581 15.68017561 -17.875 11.4375 C-15.43801232 1.86361984 -9.63730749 -1.86242445 0 0 Z " fill="#452569" transform="translate(444,241)"/>
<path d="M0 0 C0 1.32 0 2.64 0 4 C-1.15628906 4.39832031 -1.15628906 4.39832031 -2.3359375 4.8046875 C-3.33882812 5.15789062 -4.34171875 5.51109375 -5.375 5.875 C-6.87160156 6.39707031 -6.87160156 6.39707031 -8.3984375 6.9296875 C-11.10442118 7.84782502 -11.10442118 7.84782502 -13 10 C-13.35411755 12.29217392 -13.35411755 12.29217392 -13.37890625 14.9375 C-13.41306641 15.91460937 -13.44722656 16.89171875 -13.48242188 17.8984375 C-13.50884766 18.92195313 -13.53527344 19.94546875 -13.5625 21 C-13.62231417 23.0209553 -13.68592765 25.04180285 -13.75390625 27.0625 C-13.77783447 27.96097656 -13.8017627 28.85945313 -13.82641602 29.78515625 C-14 32 -14 32 -15 34 C-16.65 34 -18.3 34 -20 34 C-21.47712785 31.0457443 -21.12989998 28.38739796 -21.1328125 25.09375 C-21.13376923 24.41324585 -21.13472595 23.7327417 -21.13571167 23.03161621 C-21.13639231 21.59252836 -21.13454607 20.15343743 -21.13037109 18.71435547 C-21.12502115 16.50871907 -21.13031991 14.3032863 -21.13671875 12.09765625 C-21.13605795 10.70052038 -21.13477674 9.30338464 -21.1328125 7.90625 C-21.13168457 6.63072266 -21.13055664 5.35519531 -21.12939453 4.04101562 C-21 1 -21 1 -20 -1 C-17.625 -1.1875 -17.625 -1.1875 -15 -1 C-14.34 -0.01 -13.68 0.98 -13 2 C-12.34 2 -11.68 2 -11 2 C-11 1.34 -11 0.68 -11 0 C-6.53464227 -1.86921951 -4.33629181 -2.2956839 0 0 Z " fill="#68C6D9" transform="translate(149,314)"/>
</svg>
