<svg xmlns="http://www.w3.org/2000/svg" viewBox="0.0594482 0.0566406 96.03 25.8">
	<path d="M 71.0999 18.5496 C 68.7593 18.5496 66.844 17.6098 66.8138 15.033 H 69.1545 C 69.1849 16.1849 69.8537 16.882 71.1303 16.882 C 72.0727 16.882 73.1669 16.3971 73.1669 15.336 C 73.1669 14.487 72.4375 14.2445 71.2215 13.8808 L 70.4311 13.6694 C 68.7288 13.1845 67.0265 12.5175 67.0265 10.5773 C 67.0265 8.18223 69.276 7.36389 71.3126 7.36389 C 73.41 7.36389 75.2339 8.09136 75.2644 10.4864 H 72.9237 C 72.8326 9.51619 72.255 8.94034 71.1605 8.94034 C 70.2791 8.94034 69.4278 9.39521 69.4278 10.3652 C 69.4278 11.1534 70.1572 11.3954 71.6773 11.8809 L 72.5892 12.1537 C 74.4433 12.7299 75.6291 13.3665 75.6291 15.1854 C 75.5989 17.61 73.2278 18.5496 71.0999 18.5496 Z M 76.9362 7.57515 H 80.7055 C 81.4171 7.5399 82.1305 7.58055 82.8334 7.6964 C 84.1405 7.99964 85.1436 8.84836 85.1436 10.3036 C 85.1436 11.698 84.2621 12.3954 82.9852 12.7287 C 84.4443 13.0016 85.5388 13.7291 85.5388 15.3359 C 85.5388 17.7925 83.1068 18.3372 81.2215 18.3372 H 76.9667 L 76.9362 7.57515 Z M 80.7055 12.062 C 81.7385 12.062 82.803 11.8507 82.803 10.6068 C 82.803 9.48523 81.8301 9.18198 80.8575 9.18198 H 79.2154 V 12.0612 L 80.7055 12.062 Z M 80.9174 16.7306 C 82.0118 16.7306 83.0758 16.4881 83.0758 15.1542 C 83.0758 13.8202 82.1639 13.5777 81.0392 13.5777 H 79.1852 V 16.7306 H 80.9174 Z M 91.6187 18.5493 C 88.1225 18.5493 86.5725 16.3362 86.5725 13.0317 C 86.5725 9.72719 88.3053 7.3324 91.7403 7.3324 C 93.8987 7.3324 95.9961 8.30262 96.0576 10.7278 H 93.6259 C 93.5043 9.63632 92.7746 9.09006 91.7411 9.09006 C 89.6132 9.09006 88.9748 11.3639 88.9748 13.0917 C 88.9748 14.8195 89.6132 16.8207 91.65 16.8207 C 92.7139 16.8207 93.504 16.2446 93.6563 15.1534 H 96.0867 C 95.8438 17.6398 93.8682 18.5493 91.6187 18.5493 Z M 63.1047 13.7294 H 58.424 V 18.3375 H 56.0834 V 7.5448 H 58.424 V 11.9709 H 63.1047 V 7.5448 H 65.4453 V 18.3375 H 63.1047 V 13.7294 Z M 25.9283 12.9712 L 13.009 25.8557 H 38.8473 L 25.9283 12.9712 Z M 0.0594482 12.9712 L 13.009 25.8557 V 0.0566406 L 0.0594482 12.9712 Z M 25.9283 12.9712 L 38.8476 0.0566406 H 13.009 L 25.9283 12.9712 Z M 51.7666 12.9712 L 38.8476 0.0566406 V 25.8557 L 51.7666 12.9712 Z" fill="#000000"/>
</svg>