<svg xmlns="http://www.w3.org/2000/svg" viewBox="-0.0113467 0 60.01 60">
	<path d="M6.622 60h45.792a5 5 0 0 0 4.993-4.741l2.586-50A5 5 0 0 0 55 0H35.667a9.052 9.052 0 0 0-5.4 1.8L3.6 21.8A9.042 9.042 0 0 0 0 29v14a42.939 42.939 0 0 0 1.874 13.571A5.008 5.008 0 0 0 6.622 60ZM2.453 50h53.223l-.1 2H2.774a39.082 39.082 0 0 1-.321-2Zm49.961 8H6.622a3.009 3.009 0 0 1-2.851-2.063c-.184-.548-.375-1.2-.561-1.937h52.259l-.06 1.155A3 3 0 0 1 52.414 58ZM2 29a7.037 7.037 0 0 1 2.8-5.6l26.667-20a7.046 7.046 0 0 1 4.2-1.4H55a3 3 0 0 1 3 3.155L55.779 48H2.226A54.53 54.53 0 0 1 2 43Z M7.67 30h44.19a3.011 3.011 0 0 0 3-2.849l1.03-20a3 3 0 0 0-3-3.151H35.67a4.947 4.947 0 0 0-3 1L12.208 20.346a4.992 4.992 0 0 0-2.136 1.6L6 25a2.781 2.781 0 0 0 1.67 5Zm26.2-23.4a2.968 2.968 0 0 1 1.8-.6h17.22a.994.994 0 0 1 .73.313.98.98 0 0 1 .271.735l-1.029 19.995a1.008 1.008 0 0 1-1 .957H18v-6a2 2 0 0 0-2-2ZM14 22h2v6h-2a3 3 0 0 1 0-6Zm-6.8 4.6 1.823-1.369a4.945 4.945 0 0 0 1 2.769H7.67a.781.781 0 0 1-.47-1.4ZM47 32h-4a3 3 0 0 0 0 6h4a3 3 0 0 0 0-6Zm0 4h-4a1 1 0 0 1 0-2h4a1 1 0 0 1 0 2Z" fill="#000000"/>
</svg>