<svg xmlns="http://www.w3.org/2000/svg" viewBox="2 3.71 60 56.58">
	<path d="M 55.02 8.84 h -1.56 V 5.7 c 0 -1.098 -0.893 -1.99 -1.99 -1.99 h -3.13 c -1.097 0 -1.99 0.893 -1.99 1.99 v 3.14 h -28.7 V 5.7 c 0 -1.098 -0.893 -1.99 -1.99 -1.99 h -3.13 c -1.098 0 -1.99 0.893 -1.99 1.99 v 3.14 H 8.98 A 6.988 6.988 0 0 0 2 15.82 v 37.49 a 6.988 6.988 0 0 0 6.98 6.98 h 46.04 A 6.988 6.988 0 0 0 62 53.31 V 15.82 a 6.988 6.988 0 0 0 -6.98 -6.98 Z m -3.56 -3.142 l 0.005 4.118 c 0 0.008 -0.005 0.015 -0.005 0.023 l 0.01 4.37 l -3.12 0.01 v -4.38 c 0 -0.009 -0.005 -0.017 -0.005 -0.026 l -0.005 -4.104 l 3.12 -0.012 Z m -35.81 0.01 l 0.005 4.107 c 0 0.009 -0.005 0.016 -0.005 0.025 l 0.01 4.37 l -3.12 0.01 V 9.84 c 0 -0.009 -0.005 -0.016 -0.005 -0.025 L 12.53 5.71 Z M 60 53.31 a 4.986 4.986 0 0 1 -4.98 4.98 H 8.98 A 4.986 4.986 0 0 1 4 53.31 V 15.82 a 4.986 4.986 0 0 1 4.98 -4.98 h 1.56 v 3.38 c 0 1.097 0.893 1.99 1.99 1.99 h 3.13 c 1.097 0 1.99 -0.893 1.99 -1.99 v -3.38 h 28.7 v 3.38 c 0 1.097 0.893 1.99 1.99 1.99 h 3.13 c 1.098 0 1.99 -0.893 1.99 -1.99 v -3.38 h 1.56 A 4.986 4.986 0 0 1 60 15.82 Z" fill="#000000"/>
</svg>